<svg width="316.8" height="89.301" viewBox="0 0 316.8 89.301" xmlns="http://www.w3.org/2000/svg"><g id="svgGroup" stroke-linecap="round" fill-rule="evenodd" font-size="9pt" stroke="#000" stroke-width="0.25mm" fill="none" style="stroke:#000;stroke-width:0.25mm;fill:none"><path d="M 198.9 0 L 201.1 0 Q 201.1 1.728 200.452 4 A 27.926 27.926 0 0 1 199.85 5.85 A 24.519 24.519 0 0 1 198.546 8.843 A 17.945 17.945 0 0 1 196.75 11.65 Q 195.393 13.373 192.826 14.855 A 25.538 25.538 0 0 1 190.8 15.9 A 19.69 19.69 0 0 1 186.007 17.383 Q 183.843 17.774 181.38 17.798 A 33.2 33.2 0 0 1 181.05 17.8 Q 175.4 17.8 169.7 16 Q 163.133 25.271 155.913 52.73 A 417.276 417.276 0 0 0 155.4 54.7 A 71.492 71.492 0 0 1 152.78 63.025 Q 149.535 71.372 144.75 75.95 A 22.338 22.338 0 0 1 135.776 81.09 Q 130.917 82.6 124.65 82.6 A 34.371 34.371 0 0 1 117.081 81.819 Q 111.967 80.664 108.271 77.802 A 19.922 19.922 0 0 1 105 74.6 Q 99.3 67.5 99.3 58.1 Q 99.3 56.9 99.4 55.7 L 101.7 55.7 L 101.7 57.1 A 26.615 26.615 0 0 0 104.31 68.478 A 32.367 32.367 0 0 0 105.4 70.6 A 19.922 19.922 0 0 0 108.834 75.059 A 18.705 18.705 0 0 0 109.25 75.45 Q 111.197 77.224 114.304 78.511 A 26.921 26.921 0 0 0 115.3 78.9 A 22.55 22.55 0 0 0 120.538 80.119 A 28.557 28.557 0 0 0 123.8 80.3 A 15.479 15.479 0 0 0 130.003 79.094 Q 133.353 77.647 135.806 74.462 A 18.671 18.671 0 0 0 136.15 74 Q 140.7 67.7 144.95 49.65 Q 148.307 35.394 151.788 27.563 A 40.647 40.647 0 0 1 153.65 23.85 A 18.954 18.954 0 0 1 158.126 18.477 A 16.945 16.945 0 0 1 166.6 14.9 A 139.53 139.53 0 0 1 163.233 13.552 A 168.209 168.209 0 0 1 161.1 12.65 A 101.719 101.719 0 0 0 157.573 11.205 A 85.554 85.554 0 0 0 155.55 10.45 A 28.576 28.576 0 0 0 153.696 9.864 Q 151.699 9.299 148.891 8.735 A 109.704 109.704 0 0 0 147.95 8.55 A 51.432 51.432 0 0 0 142.366 7.809 A 68.548 68.548 0 0 0 136.9 7.6 A 29.778 29.778 0 0 0 128.058 8.89 A 27.489 27.489 0 0 0 125.55 9.8 A 24.647 24.647 0 0 0 121.439 11.971 A 17.687 17.687 0 0 0 117.4 15.6 Q 111.6 22.6 111.6 31.8 A 24.134 24.134 0 0 0 112.046 36.544 A 18.502 18.502 0 0 0 113.5 40.95 Q 115.048 44.167 117.126 46.024 A 10.725 10.725 0 0 0 118.1 46.8 Q 123.6 50.5 128.1 51 L 130 51.2 L 129.4 53.4 A 10.725 10.725 0 0 1 127.603 53.233 Q 125.604 52.891 122.95 51.85 A 32.419 32.419 0 0 1 119.405 50.219 A 23.792 23.792 0 0 1 116.25 48.2 A 13.359 13.359 0 0 1 113.968 45.941 Q 113.026 44.771 112.178 43.278 A 26.859 26.859 0 0 1 111.4 41.8 A 20.747 20.747 0 0 1 109.448 34.891 A 25.701 25.701 0 0 1 109.3 32.1 A 30.151 30.151 0 0 1 110.032 25.357 A 26.327 26.327 0 0 1 111 22.1 Q 112.7 17.5 116.05 13.75 A 21.022 21.022 0 0 1 120.822 9.826 A 28.165 28.165 0 0 1 125 7.75 Q 130.6 5.5 136.9 5.5 Q 143.2 5.5 148.3 6.45 Q 153.4 7.4 156.3 8.45 Q 159.2 9.5 161.45 10.45 Q 163.463 11.3 164.795 11.83 A 81.047 81.047 0 0 0 165.1 11.95 A 215.774 215.774 0 0 0 165.587 12.14 Q 166.48 12.489 166.757 12.585 A 3.554 3.554 0 0 0 166.8 12.6 A 7.149 7.149 0 0 1 166.948 12.652 Q 167.344 12.794 168.4 13.2 Q 169.522 13.631 170.011 13.765 A 3.02 3.02 0 0 0 170.15 13.8 A 5.137 5.137 0 0 1 170.409 13.866 Q 170.833 13.984 171.585 14.243 A 51.786 51.786 0 0 1 171.75 14.3 Q 172.698 14.63 173.306 14.756 A 4.836 4.836 0 0 0 173.55 14.8 A 14.833 14.833 0 0 1 174 14.877 Q 174.468 14.964 175.092 15.103 A 51.438 51.438 0 0 1 175.3 15.15 Q 176.4 15.4 177.2 15.45 A 50.53 50.53 0 0 1 177.842 15.495 Q 178.128 15.516 178.442 15.542 A 94.468 94.468 0 0 1 179.1 15.6 A 24.225 24.225 0 0 0 180.63 15.692 A 20.862 20.862 0 0 0 181.2 15.7 A 24.609 24.609 0 0 0 185.384 15.361 A 17.973 17.973 0 0 0 189.75 14.05 A 22.986 22.986 0 0 0 191.836 12.985 Q 193.916 11.775 195.05 10.4 A 16.198 16.198 0 0 0 197.44 6.441 A 18.478 18.478 0 0 0 197.7 5.8 A 21.468 21.468 0 0 0 198.477 3.299 Q 198.794 1.983 198.874 0.785 A 11.878 11.878 0 0 0 198.9 0 Z M 229 76.6 L 229 74.7 A 26.862 26.862 0 0 0 230.92 74.587 Q 232.792 74.404 233.984 73.952 A 5.433 5.433 0 0 0 234.65 73.65 A 4.716 4.716 0 0 0 235.875 72.662 Q 236.794 71.653 237.562 69.92 A 17.377 17.377 0 0 0 237.7 69.6 A 34.424 34.424 0 0 1 230.434 65.294 A 31.232 31.232 0 0 1 228.6 63.75 Q 225.51 60.937 224.021 58.972 A 12.117 12.117 0 0 1 223.35 58 A 53.837 53.837 0 0 1 223.034 57.478 Q 222.194 56.074 222.037 55.58 A 0.635 0.635 0 0 1 222 55.4 L 223.8 54.7 Q 223.8 55.042 224.715 56.556 A 43.291 43.291 0 0 0 225.05 57.1 A 12.605 12.605 0 0 0 225.928 58.313 Q 226.961 59.593 228.692 61.266 A 67.041 67.041 0 0 0 229.95 62.45 A 30.314 30.314 0 0 0 238.101 67.768 A 34.014 34.014 0 0 0 238.4 67.9 A 32.354 32.354 0 0 0 239.455 64.776 Q 240.166 62.288 240.7 59.2 L 249.6 7.8 Q 239.2 8.6 231.2 11.9 Q 238 19.1 238 29.1 A 27.781 27.781 0 0 1 237.333 35.364 A 18.9 18.9 0 0 1 233.05 43.85 A 19.769 19.769 0 0 1 229.606 46.953 A 12.918 12.918 0 0 1 222.1 49.4 A 15.762 15.762 0 0 1 218.385 48.988 A 10.321 10.321 0 0 1 212.9 45.75 Q 209.7 42.1 209.7 37.1 Q 209.7 29.3 214.1 22.45 A 27.605 27.605 0 0 1 220.569 15.519 Q 223.675 13.125 227.7 11.2 A 30.094 30.094 0 0 0 219.225 6.211 Q 215.572 4.765 211.21 3.96 A 52.922 52.922 0 0 0 210.3 3.8 L 210.7 1.9 Q 220.541 3.689 226.876 8.19 A 27.078 27.078 0 0 1 229.6 10.4 A 62.121 62.121 0 0 1 241.664 6.965 Q 247.606 5.869 254.443 5.593 A 116.643 116.643 0 0 1 259.15 5.5 A 61.948 61.948 0 0 1 270.034 6.397 Q 276.082 7.478 280.911 9.86 A 31.516 31.516 0 0 1 286.6 13.45 A 25.912 25.912 0 0 1 296.443 32.135 A 37.207 37.207 0 0 1 296.6 35.6 Q 296.6 50.1 286.8 61.2 Q 282.1 66.7 274.15 70 Q 266.2 73.3 257.85 73.3 Q 249.5 73.3 243.7 71.7 A 26.794 26.794 0 0 1 235.884 75.594 A 23.802 23.802 0 0 1 229 76.6 Z M 18.6 28 L 16.5 28 A 26.254 26.254 0 0 1 17.546 20.419 A 20.83 20.83 0 0 1 22.6 11.8 Q 28.7 5.5 38.3 5.5 A 27.71 27.71 0 0 1 44.498 6.18 A 25.727 25.727 0 0 1 45 6.3 Q 47.706 6.976 49.232 7.653 A 9.718 9.718 0 0 1 49.75 7.9 Q 51.3 8.7 54.65 10.55 A 136.739 136.739 0 0 0 56.247 11.419 Q 58.08 12.399 59.458 13.052 A 40.109 40.109 0 0 0 60.1 13.35 Q 62.2 14.3 66.75 15.35 A 40.174 40.174 0 0 0 72.17 16.199 A 51.485 51.485 0 0 0 76.8 16.4 L 76.8 18.5 A 59.706 59.706 0 0 1 73.358 18.405 A 46.67 46.67 0 0 1 70.9 18.2 Q 70.1 19 68.9 20.65 A 11.85 11.85 0 0 0 68.294 21.597 Q 67.354 23.199 65.805 26.482 A 195.734 195.734 0 0 0 64.8 28.65 A 104.514 104.514 0 0 0 62.301 34.637 Q 61.114 37.731 59.964 41.226 A 178.883 178.883 0 0 0 59.2 43.6 L 69.8 43.6 L 69.6 45.4 L 58.7 45.4 Q 57 50.9 55.65 56.65 Q 54.3 62.4 52.2 67.85 A 54.841 54.841 0 0 1 47.863 76.607 A 62.706 62.706 0 0 1 46.6 78.6 A 23.755 23.755 0 0 1 29.366 88.984 A 36.076 36.076 0 0 1 24.5 89.3 A 29.008 29.008 0 0 1 16.929 88.367 A 20.443 20.443 0 0 1 6.4 81.75 A 27.162 27.162 0 0 1 1.406 73.234 A 24.802 24.802 0 0 1 0 64.9 A 31.628 31.628 0 0 1 0.056 63.044 A 35.816 35.816 0 0 1 0.1 62.4 L 2.4 62.4 A 28.686 28.686 0 0 0 2.306 64.144 A 25.038 25.038 0 0 0 2.3 64.7 Q 2.3 73.8 8.25 80.5 A 19.554 19.554 0 0 0 20.495 86.924 A 27.989 27.989 0 0 0 24.5 87.2 A 11.95 11.95 0 0 0 33.495 83.073 Q 36.689 79.653 39 73.4 Q 42 65.2 43.95 56.5 A 814.049 814.049 0 0 1 44.638 53.459 Q 46.031 47.35 46.6 45.4 L 35.6 45.4 L 35.8 43.6 L 47 43.6 A 182.437 182.437 0 0 1 48.961 36.669 Q 51.456 28.514 53.9 23.95 Q 57.3 17.6 61.8 16.3 Q 58.355 15.119 54.474 12.872 A 57.312 57.312 0 0 1 54.35 12.8 Q 50.932 10.81 49.348 10.017 A 18.449 18.449 0 0 0 48.9 9.8 A 23.334 23.334 0 0 0 41.611 7.784 A 29.088 29.088 0 0 0 38.3 7.6 A 21.666 21.666 0 0 0 31.529 8.614 A 17.95 17.95 0 0 0 24.1 13.3 A 19.381 19.381 0 0 0 18.81 24.61 A 26.574 26.574 0 0 0 18.6 28 Z M 256.2 71.5 A 49.368 49.368 0 0 0 265.758 70.611 A 39.69 39.69 0 0 0 273.3 68.35 A 37.127 37.127 0 0 0 279.744 64.946 A 28.027 28.027 0 0 0 285.4 60 Q 294.7 49.4 294.7 36.25 A 32.344 32.344 0 0 0 293.59 27.541 A 23.655 23.655 0 0 0 286.1 15.7 Q 277.5 8.3 262.1 7.5 A 2783.456 2783.456 0 0 1 259.781 22.888 Q 256.5 44.225 254.4 55.1 Q 252.6 64.3 245.6 70.3 Q 250.9 71.5 256.2 71.5 Z M 211.6 37.1 Q 211.6 41.2 214.25 44.35 A 8.467 8.467 0 0 0 218.713 47.093 Q 220.118 47.462 221.799 47.496 A 17.068 17.068 0 0 0 222.15 47.5 A 11.277 11.277 0 0 0 229.59 44.692 A 16.361 16.361 0 0 0 231.4 42.9 Q 235.4 38.3 236 31.2 Q 236.1 29.9 236.1 28.6 A 21.494 21.494 0 0 0 230.335 13.901 A 28.642 28.642 0 0 0 229.2 12.7 Q 221.229 16.332 216.944 21.807 A 23.443 23.443 0 0 0 215.9 23.25 Q 211.6 29.7 211.6 37.1 Z M 77.201 60.094 A 6.933 6.933 0 0 0 79.3 65.1 A 8.261 8.261 0 0 0 79.366 65.165 A 6.937 6.937 0 0 0 84.4 67.2 Q 87.4 67.2 89.55 65.1 Q 91.7 63 91.7 60 A 7.332 7.332 0 0 0 91.372 57.786 A 7.169 7.169 0 0 0 89.55 54.85 A 8.651 8.651 0 0 0 89.483 54.783 A 7.015 7.015 0 0 0 84.4 52.7 Q 81.4 52.7 79.3 54.85 A 7.613 7.613 0 0 0 79.298 54.852 A 7.11 7.11 0 0 0 77.2 60 A 8.51 8.51 0 0 0 77.201 60.094 Z M 186.101 60.094 A 6.933 6.933 0 0 0 188.2 65.1 A 8.261 8.261 0 0 0 188.266 65.165 A 6.937 6.937 0 0 0 193.3 67.2 Q 196.3 67.2 198.45 65.1 Q 200.6 63 200.6 60 A 7.332 7.332 0 0 0 200.272 57.786 A 7.169 7.169 0 0 0 198.45 54.85 A 8.651 8.651 0 0 0 198.383 54.783 A 7.015 7.015 0 0 0 193.3 52.7 Q 190.3 52.7 188.2 54.85 A 7.613 7.613 0 0 0 188.198 54.852 A 7.11 7.11 0 0 0 186.1 60 A 8.51 8.51 0 0 0 186.101 60.094 Z M 302.301 60.094 A 6.933 6.933 0 0 0 304.4 65.1 A 8.261 8.261 0 0 0 304.466 65.165 A 6.937 6.937 0 0 0 309.5 67.2 Q 312.5 67.2 314.65 65.1 Q 316.8 63 316.8 60 A 7.332 7.332 0 0 0 316.472 57.786 A 7.169 7.169 0 0 0 314.65 54.85 A 8.651 8.651 0 0 0 314.583 54.783 A 7.015 7.015 0 0 0 309.5 52.7 Q 306.5 52.7 304.4 54.85 A 7.613 7.613 0 0 0 304.398 54.852 A 7.11 7.11 0 0 0 302.3 60 A 8.51 8.51 0 0 0 302.301 60.094 Z" vector-effect="non-scaling-stroke"/></g></svg>